<?xml version="1.0" encoding="utf-8" ?>
<svg baseProfile="tiny" height="256px" version="1.2" width="256px" xmlns="http://www.w3.org/2000/svg" xmlns:ev="http://www.w3.org/2001/xml-events" xmlns:xlink="http://www.w3.org/1999/xlink"><defs /><path d="M 163,66 L 158,71 L 158,72 L 153,77 L 153,78 L 151,80 L 152,81 L 155,81 L 156,82 L 158,82 L 159,83 L 161,83 L 162,84 L 164,84 L 165,85 L 166,85 L 167,86 L 168,86 L 169,87 L 170,87 L 172,89 L 173,89 L 176,92 L 177,92 L 184,99 L 184,100 L 186,102 L 185,103 L 171,103 L 170,104 L 165,104 L 164,105 L 161,105 L 160,106 L 159,106 L 160,107 L 161,107 L 163,109 L 164,109 L 166,111 L 167,111 L 176,120 L 176,121 L 178,123 L 178,124 L 179,125 L 179,126 L 180,127 L 180,128 L 181,129 L 181,131 L 182,132 L 182,134 L 183,135 L 183,142 L 182,143 L 181,143 L 180,142 L 179,142 L 178,141 L 177,141 L 176,140 L 175,140 L 174,139 L 173,139 L 172,138 L 170,138 L 169,137 L 166,137 L 165,136 L 162,136 L 161,135 L 160,135 L 160,136 L 162,138 L 162,139 L 163,140 L 163,141 L 164,142 L 164,143 L 165,144 L 165,146 L 166,147 L 166,151 L 167,152 L 167,163 L 166,164 L 159,157 L 158,157 L 157,156 L 156,156 L 155,155 L 154,155 L 153,154 L 150,154 L 149,153 L 138,153 L 137,154 L 135,154 L 134,155 L 133,155 L 132,156 L 131,156 L 130,157 L 131,157 L 135,161 L 135,163 L 136,164 L 136,169 L 135,170 L 135,172 L 134,173 L 134,174 L 133,175 L 133,176 L 132,177 L 132,178 L 124,186 L 124,187 L 120,191 L 119,191 L 101,209 L 101,210 L 98,213 L 98,214 L 96,216 L 96,217 L 94,219 L 94,220 L 93,221 L 93,222 L 92,223 L 92,224 L 91,225 L 91,227 L 90,228 L 90,230 L 89,231 L 89,234 L 88,235 L 88,239 L 87,240 L 87,243 L 88,242 L 89,242 L 91,240 L 92,240 L 93,239 L 94,239 L 95,238 L 96,238 L 97,237 L 98,237 L 99,236 L 101,236 L 102,235 L 104,235 L 105,234 L 106,234 L 107,233 L 109,233 L 110,232 L 112,232 L 113,231 L 115,231 L 116,230 L 118,230 L 119,229 L 122,229 L 123,228 L 125,228 L 126,227 L 129,227 L 130,226 L 133,226 L 134,225 L 137,225 L 138,224 L 141,224 L 142,223 L 145,223 L 146,222 L 149,222 L 150,221 L 153,221 L 154,220 L 157,220 L 158,219 L 160,219 L 161,218 L 164,218 L 165,217 L 167,217 L 168,216 L 171,216 L 172,215 L 174,215 L 175,214 L 177,214 L 178,213 L 180,213 L 181,212 L 182,212 L 183,211 L 185,211 L 186,210 L 187,210 L 187,209 L 188,208 L 188,207 L 189,206 L 189,205 L 190,204 L 190,203 L 191,202 L 191,200 L 192,199 L 192,197 L 193,196 L 193,194 L 194,193 L 194,191 L 195,190 L 195,187 L 196,186 L 196,182 L 197,181 L 197,174 L 198,173 L 198,171 L 197,170 L 198,169 L 199,169 L 202,172 L 202,173 L 205,176 L 205,177 L 207,179 L 207,180 L 209,182 L 209,183 L 210,184 L 210,185 L 211,186 L 211,188 L 212,189 L 212,171 L 211,170 L 211,163 L 210,162 L 210,157 L 209,156 L 209,153 L 208,152 L 208,149 L 207,148 L 207,146 L 206,145 L 206,143 L 205,142 L 205,140 L 204,139 L 204,137 L 203,136 L 204,135 L 207,135 L 208,136 L 210,136 L 211,137 L 212,137 L 213,138 L 214,138 L 215,139 L 216,139 L 217,140 L 218,140 L 220,142 L 221,142 L 224,145 L 225,145 L 225,144 L 224,143 L 224,142 L 223,141 L 223,140 L 222,139 L 222,138 L 221,137 L 221,136 L 220,135 L 220,134 L 218,132 L 218,131 L 217,130 L 217,129 L 215,127 L 215,126 L 212,123 L 212,122 L 208,118 L 208,117 L 198,107 L 200,105 L 218,105 L 219,106 L 222,106 L 222,105 L 221,105 L 218,102 L 217,102 L 214,99 L 213,99 L 211,97 L 210,97 L 208,95 L 207,95 L 206,94 L 205,94 L 204,93 L 203,93 L 201,91 L 200,91 L 199,90 L 198,90 L 197,89 L 196,89 L 195,88 L 194,88 L 193,87 L 192,87 L 191,86 L 190,86 L 189,85 L 188,85 L 187,84 L 186,84 L 185,83 L 184,83 L 183,82 L 181,82 L 180,81 L 179,81 L 178,80 L 181,77 L 182,77 L 184,75 L 185,75 L 186,74 L 187,74 L 188,73 L 189,73 L 190,72 L 191,72 L 192,71 L 193,71 L 194,70 L 196,70 L 197,69 L 199,69 L 200,68 L 203,68 L 203,67 L 198,67 L 197,66 Z" fill="purple" stroke="none" /><path d="M 151,12 L 146,17 L 145,17 L 140,22 L 139,22 L 131,30 L 130,30 L 122,38 L 121,38 L 112,47 L 111,47 L 102,56 L 101,56 L 91,66 L 90,66 L 73,83 L 73,84 L 70,87 L 69,86 L 69,85 L 70,84 L 70,83 L 66,87 L 65,87 L 60,92 L 60,93 L 58,95 L 58,96 L 57,97 L 57,105 L 58,106 L 58,108 L 53,113 L 52,113 L 48,117 L 47,117 L 44,120 L 43,119 L 43,117 L 44,116 L 44,115 L 43,115 L 39,119 L 38,119 L 35,122 L 34,122 L 28,128 L 28,129 L 27,130 L 27,132 L 26,133 L 26,146 L 27,147 L 27,150 L 28,151 L 28,152 L 29,153 L 29,155 L 31,157 L 31,158 L 33,160 L 33,161 L 36,164 L 37,164 L 38,165 L 38,162 L 39,161 L 39,159 L 41,157 L 42,157 L 46,161 L 47,161 L 49,163 L 50,163 L 50,162 L 49,161 L 49,159 L 48,158 L 48,154 L 47,153 L 48,152 L 49,152 L 52,155 L 53,155 L 57,159 L 58,159 L 59,160 L 59,157 L 58,156 L 58,148 L 59,147 L 61,149 L 62,149 L 64,151 L 65,151 L 67,153 L 68,153 L 69,154 L 69,153 L 68,152 L 68,149 L 67,148 L 67,144 L 68,143 L 69,144 L 71,144 L 73,146 L 74,146 L 75,147 L 76,147 L 76,144 L 75,143 L 75,140 L 76,139 L 77,140 L 78,140 L 79,141 L 80,141 L 81,142 L 82,142 L 82,141 L 81,140 L 81,136 L 85,132 L 86,132 L 87,131 L 88,131 L 89,130 L 90,130 L 91,129 L 92,129 L 93,128 L 94,128 L 95,127 L 104,127 L 105,128 L 106,128 L 108,130 L 109,130 L 110,131 L 110,132 L 111,133 L 110,134 L 106,134 L 105,133 L 104,133 L 103,134 L 101,134 L 93,142 L 93,143 L 91,145 L 91,146 L 90,147 L 90,148 L 89,149 L 89,151 L 88,152 L 88,155 L 87,156 L 87,163 L 86,164 L 84,162 L 84,161 L 83,160 L 83,159 L 82,160 L 82,162 L 81,163 L 81,171 L 82,172 L 81,173 L 79,173 L 78,172 L 77,172 L 76,171 L 75,171 L 74,170 L 73,170 L 73,172 L 74,173 L 74,175 L 75,176 L 75,178 L 76,179 L 76,180 L 75,181 L 74,181 L 73,180 L 72,180 L 71,179 L 70,179 L 68,177 L 68,176 L 67,176 L 67,179 L 66,180 L 63,177 L 63,176 L 61,174 L 61,173 L 60,172 L 60,170 L 59,169 L 59,168 L 59,169 L 58,170 L 58,177 L 59,178 L 59,181 L 60,182 L 60,183 L 61,184 L 61,185 L 64,188 L 64,189 L 63,190 L 61,190 L 61,191 L 64,194 L 64,195 L 67,198 L 68,198 L 71,201 L 72,201 L 73,202 L 74,202 L 75,203 L 76,203 L 77,204 L 79,204 L 80,205 L 82,205 L 83,206 L 88,206 L 89,207 L 93,207 L 94,206 L 93,206 L 85,198 L 86,197 L 88,197 L 89,196 L 93,196 L 94,195 L 97,195 L 98,194 L 100,194 L 101,193 L 102,193 L 103,192 L 104,192 L 106,190 L 107,190 L 109,188 L 105,188 L 104,187 L 100,187 L 99,186 L 100,185 L 100,184 L 101,183 L 101,182 L 102,181 L 102,180 L 103,179 L 103,178 L 106,175 L 106,174 L 126,154 L 127,154 L 129,152 L 130,152 L 131,151 L 132,151 L 133,150 L 135,150 L 136,149 L 139,149 L 140,148 L 147,148 L 148,149 L 152,149 L 153,150 L 154,150 L 155,151 L 156,151 L 157,152 L 158,152 L 159,153 L 160,153 L 162,155 L 163,155 L 162,154 L 162,150 L 161,149 L 161,146 L 160,145 L 160,144 L 159,143 L 159,141 L 157,139 L 157,138 L 156,137 L 156,136 L 150,130 L 151,129 L 152,129 L 153,130 L 158,130 L 159,131 L 163,131 L 164,132 L 167,132 L 168,133 L 170,133 L 171,134 L 172,134 L 173,135 L 175,135 L 177,137 L 179,137 L 178,136 L 178,133 L 177,132 L 177,131 L 176,130 L 176,128 L 174,126 L 174,125 L 173,124 L 173,123 L 163,113 L 162,113 L 160,111 L 159,111 L 158,110 L 157,110 L 156,109 L 155,109 L 154,108 L 153,108 L 152,107 L 150,107 L 149,106 L 149,105 L 150,104 L 152,104 L 153,103 L 154,103 L 155,102 L 157,102 L 158,101 L 162,101 L 163,100 L 169,100 L 170,99 L 178,99 L 175,96 L 174,96 L 171,93 L 170,93 L 169,92 L 168,92 L 166,90 L 165,90 L 164,89 L 163,89 L 162,88 L 160,88 L 159,87 L 158,87 L 157,86 L 155,86 L 154,85 L 152,85 L 151,84 L 147,84 L 146,83 L 144,83 L 143,82 L 146,79 L 146,78 L 149,75 L 149,74 L 156,67 L 156,66 L 166,56 L 167,56 L 175,48 L 176,48 L 181,43 L 182,43 L 186,39 L 187,39 L 190,36 L 191,36 L 194,33 L 195,33 L 196,32 L 194,32 L 193,33 L 191,33 L 190,34 L 189,34 L 188,35 L 186,35 L 185,36 L 184,36 L 183,37 L 181,37 L 180,38 L 179,38 L 178,39 L 177,39 L 176,40 L 174,40 L 173,41 L 172,41 L 171,42 L 170,42 L 169,43 L 167,43 L 166,44 L 165,44 L 164,45 L 163,45 L 162,46 L 161,46 L 160,47 L 158,47 L 157,48 L 156,48 L 155,49 L 154,49 L 153,50 L 152,50 L 151,51 L 150,51 L 149,52 L 148,52 L 147,53 L 145,53 L 144,54 L 143,54 L 142,55 L 141,55 L 140,56 L 139,56 L 138,57 L 137,57 L 136,58 L 135,58 L 134,59 L 132,59 L 131,60 L 130,60 L 129,59 L 129,58 L 131,56 L 131,55 L 133,53 L 133,52 L 135,50 L 135,49 L 137,47 L 137,46 L 138,45 L 138,44 L 140,42 L 140,41 L 141,40 L 141,39 L 142,38 L 142,37 L 143,36 L 143,35 L 144,34 L 144,33 L 145,32 L 145,31 L 146,30 L 146,29 L 147,28 L 147,27 L 148,26 L 148,24 L 149,23 L 149,22 L 150,21 L 150,19 L 151,18 L 151,15 L 152,14 L 152,12 Z" fill="purple" stroke="none" /></svg>